<svg width="261" height="82" viewBox="0 0 261 82" fill="none" xmlns="http://www.w3.org/2000/svg">
<path d="M39.1799 73.2992C40.3822 73.2992 41.2943 72.9882 41.9162 72.3663C42.5796 71.703 42.9113 70.7701 42.9113 69.5678L42.9113 50.9107C42.9113 49.7084 42.5796 48.7962 41.9162 48.1743C41.2943 47.511 40.3822 47.1793 39.1799 47.1793L13.0599 47.1793C11.8576 47.1793 10.9248 47.511 10.2614 48.1743C9.63949 48.7962 9.32854 49.7084 9.32854 50.9107L9.32854 69.5678C9.32854 70.7701 9.63949 71.703 10.2614 72.3663C10.9248 72.9882 11.8576 73.2992 13.0599 73.2992H39.1799ZM0 50.9107C0 42.6187 4.14602 38.4727 12.4381 38.4727L39.8017 38.4727C48.0938 38.4727 52.2398 42.6187 52.2398 50.9107L52.2398 69.5678C52.2398 77.8598 48.0938 82.0058 39.8017 82.0058H12.4381C4.14602 82.0058 0 77.8598 0 69.5678L0 50.9107Z" fill="white"/>
<path d="M0.174072 0L12.3595 0L27.101 27.9527L41.6894 0L53.5358 0L34.9177 35.706L19.0472 35.706L0.174072 0Z" fill="#6B935C"/>
<path d="M76 68.3301V38.3301H100.816C106.521 38.3301 109.373 41.1872 109.373 46.9015V50.7586C109.373 56.4729 106.521 59.3301 100.816 59.3301H82.418V68.3301H76ZM100.388 53.3301C101.216 53.3301 101.843 53.1158 102.271 52.6872C102.727 52.2301 102.956 51.5872 102.956 50.7586V46.9015C102.956 46.0729 102.727 45.4444 102.271 45.0158C101.843 44.5586 101.216 44.3301 100.388 44.3301H82.418V53.3301H100.388Z" fill="white"/>
<path d="M139.329 62.3301C140.156 62.3301 140.784 62.1158 141.212 61.6872C141.668 61.2301 141.896 60.5872 141.896 59.7586V46.9015C141.896 46.0729 141.668 45.4444 141.212 45.0158C140.784 44.5586 140.156 44.3301 139.329 44.3301H121.359C120.532 44.3301 119.89 44.5586 119.433 45.0158C119.005 45.4444 118.792 46.0729 118.792 46.9015V59.7586C118.792 60.5872 119.005 61.2301 119.433 61.6872C119.89 62.1158 120.532 62.3301 121.359 62.3301H139.329ZM112.374 46.9015C112.374 41.1872 115.226 38.3301 120.931 38.3301H139.757C145.462 38.3301 148.314 41.1872 148.314 46.9015V59.7586C148.314 65.4729 145.462 68.3301 139.757 68.3301H120.931C115.226 68.3301 112.374 65.4729 112.374 59.7586V46.9015Z" fill="white"/>
<path d="M152.602 38.3301H181.697V44.3301H159.02V68.3301H152.602V38.3301Z" fill="white"/>
<path d="M211.005 62.3301C211.832 62.3301 212.46 62.1158 212.887 61.6872C213.344 61.2301 213.572 60.5872 213.572 59.7586V46.9015C213.572 46.0729 213.344 45.4444 212.887 45.0158C212.46 44.5586 211.832 44.3301 211.005 44.3301H193.034C192.207 44.3301 191.565 44.5586 191.109 45.0158C190.681 45.4444 190.467 46.0729 190.467 46.9015V59.7586C190.467 60.5872 190.681 61.2301 191.109 61.6872C191.565 62.1158 192.207 62.3301 193.034 62.3301H211.005ZM184.049 46.9015C184.049 41.1872 186.902 38.3301 192.607 38.3301H211.433C217.138 38.3301 219.99 41.1872 219.99 46.9015V59.7586C219.99 65.4729 217.138 68.3301 211.433 68.3301H192.607C186.902 68.3301 184.049 65.4729 184.049 59.7586V46.9015Z" fill="white"/>
<path d="M251.015 38.3301C253.867 38.3301 256.007 39.0158 257.433 40.3872C258.859 41.7586 259.572 43.7872 259.572 46.4729V47.7586C259.572 48.8729 259.33 49.9015 258.845 50.8444C258.36 51.7586 257.675 52.5158 256.791 53.1158C257.818 53.6872 258.602 54.4729 259.144 55.4729C259.715 56.4729 260 57.6158 260 58.9015V60.1872C260 62.8729 259.287 64.9015 257.861 66.2729C256.434 67.6444 254.295 68.3301 251.443 68.3301H225.771V38.3301H251.015ZM251.015 62.3301C251.842 62.3301 252.47 62.1158 252.897 61.6872C253.354 61.2301 253.582 60.5872 253.582 59.7586V58.6872C253.582 57.8586 253.354 57.2301 252.897 56.8015C252.47 56.3444 251.842 56.1158 251.015 56.1158H232.189V62.3301H251.015ZM250.587 50.5444C251.414 50.5444 252.042 50.3301 252.47 49.9015C252.926 49.4444 253.154 48.8015 253.154 47.9729V46.9015C253.154 46.0729 252.926 45.4444 252.47 45.0158C252.042 44.5586 251.414 44.3301 250.587 44.3301H232.189V50.5444H250.587Z" fill="white"/>
<mask id="mask0_362_15" style="mask-type:alpha" maskUnits="userSpaceOnUse" x="75" y="37" width="186" height="32">
<path d="M76 67.9506V38H100.816C106.521 38 109.373 40.8524 109.373 46.5573V50.4081C109.373 56.113 106.521 58.9654 100.816 58.9654H82.418V67.9506H76ZM100.388 52.9753C101.216 52.9753 101.843 52.7613 102.271 52.3335C102.727 51.8771 102.956 51.2353 102.956 50.4081V46.5573C102.956 45.7301 102.727 45.1026 102.271 44.6747C101.843 44.2183 101.216 43.9901 100.388 43.9901H82.418V52.9753H100.388Z" fill="#141414"/>
<path d="M139.329 61.9604C140.156 61.9604 140.784 61.7465 141.212 61.3186C141.668 60.8623 141.896 60.2205 141.896 59.3933V46.5573C141.896 45.7301 141.668 45.1026 141.212 44.6747C140.784 44.2183 140.156 43.9901 139.329 43.9901H121.359C120.532 43.9901 119.89 44.2183 119.433 44.6747C119.005 45.1026 118.792 45.7301 118.792 46.5573V59.3933C118.792 60.2205 119.005 60.8623 119.433 61.3186C119.89 61.7465 120.532 61.9604 121.359 61.9604H139.329ZM112.374 46.5573C112.374 40.8524 115.226 38 120.931 38H139.757C145.462 38 148.314 40.8524 148.314 46.5573V59.3933C148.314 65.0981 145.462 67.9506 139.757 67.9506H120.931C115.226 67.9506 112.374 65.0981 112.374 59.3933V46.5573Z" fill="#141414"/>
<path d="M152.602 38H181.697V43.9901H159.02V67.9506H152.602V38Z" fill="#141414"/>
<path d="M211.005 61.9604C211.832 61.9604 212.46 61.7465 212.887 61.3186C213.344 60.8623 213.572 60.2205 213.572 59.3933V46.5573C213.572 45.7301 213.344 45.1026 212.887 44.6747C212.46 44.2183 211.832 43.9901 211.005 43.9901H193.034C192.207 43.9901 191.565 44.2183 191.109 44.6747C190.681 45.1026 190.467 45.7301 190.467 46.5573V59.3933C190.467 60.2205 190.681 60.8623 191.109 61.3186C191.565 61.7465 192.207 61.9604 193.034 61.9604H211.005ZM184.049 46.5573C184.049 40.8524 186.902 38 192.607 38H211.433C217.138 38 219.99 40.8524 219.99 46.5573V59.3933C219.99 65.0981 217.138 67.9506 211.433 67.9506H192.607C186.902 67.9506 184.049 65.0981 184.049 59.3933V46.5573Z" fill="#141414"/>
<path d="M251.015 38C253.867 38 256.007 38.6846 257.433 40.0538C258.859 41.4229 259.572 43.4481 259.572 46.1294V47.413C259.572 48.5255 259.33 49.5524 258.845 50.4937C258.36 51.4064 257.675 52.1623 256.791 52.7613C257.818 53.3318 258.602 54.1163 259.144 55.1146C259.715 56.113 260 57.2539 260 58.5375V59.8211C260 62.5024 259.287 64.5276 257.861 65.8968C256.434 67.266 254.295 67.9506 251.443 67.9506H225.771V38H251.015ZM251.015 61.9604C251.842 61.9604 252.47 61.7465 252.897 61.3186C253.354 60.8623 253.582 60.2205 253.582 59.3933V58.3236C253.582 57.4964 253.354 56.8689 252.897 56.441C252.47 55.9846 251.842 55.7564 251.015 55.7564H232.189V61.9604H251.015ZM250.587 50.1942C251.414 50.1942 252.042 49.9802 252.47 49.5524C252.926 49.096 253.154 48.4542 253.154 47.627V46.5573C253.154 45.7301 252.926 45.1026 252.47 44.6747C252.042 44.2183 251.414 43.9901 250.587 43.9901H232.189V50.1942H250.587Z" fill="#141414"/>
<path d="M76 67.9506V38H100.816C106.521 38 109.373 40.8524 109.373 46.5573V50.4081C109.373 56.113 106.521 58.9654 100.816 58.9654H82.418V67.9506H76ZM100.388 52.9753C101.216 52.9753 101.843 52.7613 102.271 52.3335C102.727 51.8771 102.956 51.2353 102.956 50.4081V46.5573C102.956 45.7301 102.727 45.1026 102.271 44.6747C101.843 44.2183 101.216 43.9901 100.388 43.9901H82.418V52.9753H100.388Z" stroke="#2E2E2E"/>
<path d="M139.329 61.9604C140.156 61.9604 140.784 61.7465 141.212 61.3186C141.668 60.8623 141.896 60.2205 141.896 59.3933V46.5573C141.896 45.7301 141.668 45.1026 141.212 44.6747C140.784 44.2183 140.156 43.9901 139.329 43.9901H121.359C120.532 43.9901 119.89 44.2183 119.433 44.6747C119.005 45.1026 118.792 45.7301 118.792 46.5573V59.3933C118.792 60.2205 119.005 60.8623 119.433 61.3186C119.89 61.7465 120.532 61.9604 121.359 61.9604H139.329ZM112.374 46.5573C112.374 40.8524 115.226 38 120.931 38H139.757C145.462 38 148.314 40.8524 148.314 46.5573V59.3933C148.314 65.0981 145.462 67.9506 139.757 67.9506H120.931C115.226 67.9506 112.374 65.0981 112.374 59.3933V46.5573Z" stroke="#2E2E2E"/>
<path d="M152.602 38H181.697V43.9901H159.02V67.9506H152.602V38Z" stroke="#2E2E2E"/>
<path d="M211.005 61.9604C211.832 61.9604 212.46 61.7465 212.887 61.3186C213.344 60.8623 213.572 60.2205 213.572 59.3933V46.5573C213.572 45.7301 213.344 45.1026 212.887 44.6747C212.46 44.2183 211.832 43.9901 211.005 43.9901H193.034C192.207 43.9901 191.565 44.2183 191.109 44.6747C190.681 45.1026 190.467 45.7301 190.467 46.5573V59.3933C190.467 60.2205 190.681 60.8623 191.109 61.3186C191.565 61.7465 192.207 61.9604 193.034 61.9604H211.005ZM184.049 46.5573C184.049 40.8524 186.902 38 192.607 38H211.433C217.138 38 219.99 40.8524 219.99 46.5573V59.3933C219.99 65.0981 217.138 67.9506 211.433 67.9506H192.607C186.902 67.9506 184.049 65.0981 184.049 59.3933V46.5573Z" stroke="#2E2E2E"/>
<path d="M251.015 38C253.867 38 256.007 38.6846 257.433 40.0538C258.859 41.4229 259.572 43.4481 259.572 46.1294V47.413C259.572 48.5255 259.33 49.5524 258.845 50.4937C258.36 51.4064 257.675 52.1623 256.791 52.7613C257.818 53.3318 258.602 54.1163 259.144 55.1146C259.715 56.113 260 57.2539 260 58.5375V59.8211C260 62.5024 259.287 64.5276 257.861 65.8968C256.434 67.266 254.295 67.9506 251.443 67.9506H225.771V38H251.015ZM251.015 61.9604C251.842 61.9604 252.47 61.7465 252.897 61.3186C253.354 60.8623 253.582 60.2205 253.582 59.3933V58.3236C253.582 57.4964 253.354 56.8689 252.897 56.441C252.47 55.9846 251.842 55.7564 251.015 55.7564H232.189V61.9604H251.015ZM250.587 50.1942C251.414 50.1942 252.042 49.9802 252.47 49.5524C252.926 49.096 253.154 48.4542 253.154 47.627V46.5573C253.154 45.7301 252.926 45.1026 252.47 44.6747C252.042 44.2183 251.414 43.9901 250.587 43.9901H232.189V50.1942H250.587Z" stroke="#2E2E2E"/>
</mask>
<g mask="url(#mask0_362_15)">
<path d="M151.318 9.7207L183.927 72.9188H259.823L276.849 39.1554L239.622 31.941L219.999 39.1554L151.318 9.7207Z" fill="#6B935C" stroke="#6B935C"/>
</g>
<path d="M82.1367 20.2997V25.5178H83.1685V27.9405H81.9217V26.8223H76.2468V27.9405H75V25.5178H75.258C75.8312 25.5178 76.1178 25.2072 76.1178 24.586V20.2997H82.1367ZM80.8469 25.5178V21.6042H77.4075V24.3624C77.4075 24.6233 77.3789 24.8438 77.3216 25.0239C77.2642 25.1979 77.1639 25.3625 77.0206 25.5178H80.8469Z" fill="#6B935C"/>
<path d="M90.7797 26.8223H89.49V21.8745L85.4487 26.8223H83.901V20.2997H85.1908V25.1917L89.232 20.2997H90.7797V26.8223Z" fill="#6B935C"/>
<path d="M93.4471 21.6042C93.2808 21.6042 93.1519 21.6539 93.0601 21.7533C92.9742 21.8465 92.9312 21.9832 92.9312 22.1633V22.6292H91.6414V22.1633C91.6414 20.9209 92.2146 20.2997 93.3611 20.2997H96.8864C97.4597 20.2997 97.8896 20.4488 98.1762 20.747C98.4628 21.0452 98.6061 21.4862 98.6061 22.0701V22.3497C98.6061 22.5919 98.5574 22.8156 98.4599 23.0206C98.3625 23.2193 98.2249 23.384 98.0472 23.5144C98.2536 23.6387 98.4112 23.8095 98.5201 24.0269C98.6348 24.2443 98.6921 24.4928 98.6921 24.7723V25.0519C98.6921 25.6358 98.5488 26.0769 98.2622 26.375C97.9756 26.6732 97.5456 26.8223 96.9724 26.8223H93.3611C92.2146 26.8223 91.6414 26.2011 91.6414 24.9587V24.4928H92.9312V24.9587C92.9312 25.1388 92.9742 25.2786 93.0601 25.378C93.1519 25.4712 93.2808 25.5178 93.4471 25.5178H96.8864C97.0527 25.5178 97.1788 25.4712 97.2648 25.378C97.3565 25.2786 97.4023 25.1388 97.4023 24.9587V24.7258C97.4023 24.5456 97.3593 24.4152 97.2734 24.3344C97.1874 24.2536 97.0584 24.2133 96.8864 24.2133H94.049V22.9087H96.8004C96.9724 22.9087 97.1014 22.8684 97.1874 22.7876C97.2734 22.7069 97.3164 22.5764 97.3164 22.3963V22.1633C97.3164 21.9832 97.2705 21.8465 97.1788 21.7533C97.0928 21.6539 96.9667 21.6042 96.8004 21.6042H93.4471Z" fill="#6B935C"/>
<path d="M107.165 26.8223H105.704L104.947 25.378H100.906L100.158 26.8223H98.7389L102.135 20.2997H103.726L107.165 26.8223ZM104.319 24.1667L102.909 21.4738L101.525 24.1667H104.319Z" fill="#6B935C"/>
<path d="M114.6 26.8223H113.31V21.8745L109.269 26.8223H107.721V20.2997H109.011V25.1917L113.052 20.2997H114.6V26.8223ZM109.613 18.5293H112.708V19.6475H109.613V18.5293Z" fill="#6B935C"/>
<path d="M115.634 26.8223V20.2997H116.923V22.9087H121.223V20.2997H122.512V26.8223H121.223V24.2133H116.923V26.8223H115.634Z" fill="#6B935C"/>
<path d="M129.823 20.2997V21.6042H124.836V22.9087H129.651V24.2133H124.836V25.5178H129.823V26.8223H123.546V20.2997H129.823Z" fill="#6B935C"/>
<path d="M130.642 26.8223V20.2997H135.629C136.776 20.2997 137.349 20.9209 137.349 22.1633V23.0019C137.349 24.2443 136.776 24.8655 135.629 24.8655H131.932V26.8223H130.642ZM135.543 23.561C135.709 23.561 135.836 23.5144 135.922 23.4212C136.013 23.3218 136.059 23.1821 136.059 23.0019V22.1633C136.059 21.9832 136.013 21.8465 135.922 21.7533C135.836 21.6539 135.709 21.6042 135.543 21.6042H131.932V23.561H135.543Z" fill="#6B935C"/>
<rect x="207.933" y="15" width="52.3496" height="15.2931" rx="1" fill="#6B935C"/>
<path d="M219.032 24.3247C219.032 25.5584 218.431 26.1752 217.23 26.1752H213.264C212.063 26.1752 211.462 25.5584 211.462 24.3247V21.5489C211.462 20.3152 212.063 19.6984 213.264 19.6984H217.23C218.431 19.6984 219.032 20.3152 219.032 21.5489V22.1966H217.68V21.5489C217.68 21.37 217.632 21.2343 217.536 21.1418C217.446 21.0431 217.314 20.9938 217.139 20.9938H213.354C213.18 20.9938 213.045 21.0431 212.949 21.1418C212.859 21.2343 212.814 21.37 212.814 21.5489V24.3247C212.814 24.5036 212.859 24.6424 212.949 24.741C213.045 24.8336 213.18 24.8798 213.354 24.8798H217.139C217.314 24.8798 217.446 24.8336 217.536 24.741C217.632 24.6424 217.68 24.5036 217.68 24.3247V23.677H219.032V24.3247Z" fill="#151515"/>
<path d="M226.514 19.6984V20.9938H221.287V22.2891H226.334V23.5845H221.287V24.8798H226.514V26.1752H219.935V19.6984H226.514Z" fill="#151515"/>
<path d="M227.373 26.1752V19.6984H232.6C233.802 19.6984 234.402 20.3152 234.402 21.5489V22.3817C234.402 23.6153 233.802 24.2322 232.6 24.2322H228.725V26.1752H227.373ZM232.51 22.9368C232.684 22.9368 232.816 22.8905 232.906 22.798C233.002 22.6993 233.05 22.5605 233.05 22.3817V21.5489C233.05 21.37 233.002 21.2343 232.906 21.1418C232.816 21.0431 232.684 20.9938 232.51 20.9938H228.725V22.9368H232.51Z" fill="#151515"/>
<path d="M235.214 19.6984H241.343V20.9938H236.566V26.1752H235.214V19.6984Z" fill="#151515"/>
<path d="M248.684 19.6984V20.9938H243.457V22.2891H248.504V23.5845H243.457V24.8798H248.684V26.1752H242.106V19.6984H248.684Z" fill="#151515"/>
<path d="M256.753 26.1752H255.401V21.2621L251.165 26.1752H249.543V19.6984H250.895V24.556L255.131 19.6984H256.753V26.1752ZM251.526 17.9404H254.77V19.0507H251.526V17.9404Z" fill="#151515"/>
<line x1="140.29" y1="23.3145" x2="205.58" y2="23.3145" stroke="#6B935C" stroke-width="1.01758"/>
</svg>
